{"accessors":[{"name":"Broers_Design_Nederland-Mesh_0_positions","componentType":5126,"count":268,"min":[-0.41741111874580383,0.7517227530479431,-0.421175092458725],"max":[-0.11847824603319168,0.8011106252670288,0.005561867728829384],"type":"VEC3","bufferView":0,"byteOffset":0},{"name":"Broers_Design_Nederland-Mesh_0_normals","componentType":5126,"count":268,"min":[-0.9637404680252075,-0.9983565807342529,-0.9873011708259583],"max":[0.9989075064659119,0.9999881386756897,0.9945279359817505],"type":"VEC3","bufferView":1,"byteOffset":0},{"name":"Broers_Design_Nederland-Mesh_0_texcoords","componentType":5126,"count":268,"min":[0,0.014468014240264893],"max":[0.9635027050971985,1],"type":"VEC2","bufferView":2,"byteOffset":0},{"name":"Broers_Design_Nederland-Mesh_0_indices","componentType":5123,"count":915,"min":[0],"max":[267],"type":"SCALAR","bufferView":3,"byteOffset":0},{"name":"Broers_Design_Nederland_1-Mesh_0_positions","componentType":5126,"count":450,"min":[-0.7880555987358093,0.7229992747306824,-1.4173990488052368],"max":[0.7880324721336365,0.7530227899551392,1.4173693656921387],"type":"VEC3","bufferView":0,"byteOffset":3216},{"name":"Broers_Design_Nederland_1-Mesh_0_normals","componentType":5126,"count":450,"min":[-0.9998896718025208,-1,-0.9999958872795105],"max":[0.9998896718025208,1,0.9999958872795105],"type":"VEC3","bufferView":1,"byteOffset":3216},{"name":"Broers_Design_Nederland_1-Mesh_0_texcoords","componentType":5126,"count":450,"min":[0,0],"max":[0.8813033699989319,1],"type":"VEC2","bufferView":2,"byteOffset":2144},{"name":"Broers_Design_Nederland_1-Mesh_0_indices","componentType":5123,"count":1512,"min":[0],"max":[449],"type":"SCALAR","bufferView":3,"byteOffset":1832},{"name":"Broers_Design_Nederland_2-Mesh_0_positions","componentType":5126,"count":1478,"min":[-1.095292329788208,-0.0022946768440306187,-0.5690110325813293],"max":[-0.2778453826904297,1.4001656770706177,0.1281319111585617],"type":"VEC3","bufferView":0,"byteOffset":8616},{"name":"Broers_Design_Nederland_2-Mesh_0_normals","componentType":5126,"count":1478,"min":[-0.9993347525596619,-0.9999834895133972,-0.9994103908538818],"max":[0.9995959997177124,0.9879150986671448,0.9942328333854675],"type":"VEC3","bufferView":1,"byteOffset":8616},{"name":"Broers_Design_Nederland_2-Mesh_0_texcoords","componentType":5126,"count":1478,"min":[-0.8661680817604065,0.2774672508239746],"max":[1.364497184753418,1.8661680221557617],"type":"VEC2","bufferView":2,"byteOffset":5744},{"name":"Broers_Design_Nederland_2-Mesh_0_indices","componentType":5123,"count":1500,"min":[0],"max":[1477],"type":"SCALAR","bufferView":3,"byteOffset":4856},{"name":"Broers_Design_Nederland_3-Mesh_0_positions","componentType":5126,"count":1369,"min":[-0.06197558343410492,0.0002074094081763178,0.7846384048461914],"max":[0.7512019276618958,0.7252299189567566,1.3240077495574951],"type":"VEC3","bufferView":0,"byteOffset":26352},{"name":"Broers_Design_Nederland_3-Mesh_0_normals","componentType":5126,"count":1369,"min":[-0.9998430013656616,-1,-0.9999979138374329],"max":[0.9998489022254944,1,0.9999979138374329],"type":"VEC3","bufferView":1,"byteOffset":26352},{"name":"Broers_Design_Nederland_3-Mesh_0_texcoords","componentType":5126,"count":1369,"min":[0.1010177880525589,0.02945798635482788],"max":[0.9640181660652161,0.9690501093864441],"type":"VEC2","bufferView":2,"byteOffset":17568},{"name":"Broers_Design_Nederland_3-Mesh_0_indices","componentType":5123,"count":3702,"min":[0],"max":[1368],"type":"SCALAR","bufferView":3,"byteOffset":7856},{"name":"Broers_Design_Nederland_4-Mesh_0_positions","componentType":5126,"count":1363,"min":[-0.7525510787963867,0.00020740549371112138,-1.3235958814620972],"max":[0.060641031712293625,0.7252299785614014,-0.784226655960083],"type":"VEC3","bufferView":0,"byteOffset":42780},{"name":"Broers_Design_Nederland_4-Mesh_0_normals","componentType":5126,"count":1363,"min":[-0.9998480677604675,-1,-0.9999979138374329],"max":[0.9998430013656616,1,0.9999979138374329],"type":"VEC3","bufferView":1,"byteOffset":42780},{"name":"Broers_Design_Nederland_4-Mesh_0_texcoords","componentType":5126,"count":1363,"min":[0.02463972568511963,0.03095531463623047],"max":[0.9594637155532837,0.9690501093864441],"type":"VEC2","bufferView":2,"byteOffset":28520},{"name":"Broers_Design_Nederland_4-Mesh_0_indices","componentType":5123,"count":3684,"min":[0],"max":[1362],"type":"SCALAR","bufferView":3,"byteOffset":15260}],"asset":{"generator":"obj2gltf","version":"2.0"},"buffers":[{"name":"model","byteLength":1932404,"uri":"data:application/octet-stream;base64,"}],"bufferViews":[{"name":"bufferView_0","buffer":0,"byteLength":59136,"byteOffset":0,"byteStride":12,"target":34962},{"name":"bufferView_1","buffer":0,"byteLength":59136,"byteOffset":59136,"byteStride":12,"target":34962},{"name":"bufferView_2","buffer":0,"byteLength":39424,"byteOffset":118272,"byteStride":8,"target":34962},{"name":"bufferView_3","buffer":0,"byteLength":22628,"byteOffset":157696,"target":34963},{"buffer":0,"byteOffset":180324,"byteLength":47340},{"buffer":0,"byteOffset":227664,"byteLength":1703925},{"buffer":0,"byteOffset":1931589,"byteLength":813}],"images":[{"name":"Broers_Design_Nederland_144410","mimeType":"image/jpeg","bufferView":4},{"name":"Broers_Design_Nederland_319685","mimeType":"image/jpeg","bufferView":5},{"name":"Broers_Design_Nederland_156947","mimeType":"image/jpeg","bufferView":6}],"materials":[{"name":"Broers_Design_Nederland_144410","pbrMetallicRoughness":{"baseColorTexture":{"index":0},"baseColorFactor":[1,1,1,1],"metallicFactor":0,"roughnessFactor":1},"emissiveFactor":[0,0,0],"alphaMode":"OPAQUE","doubleSided":false},{"name":"Broers_Design_Nederland_319685","pbrMetallicRoughness":{"baseColorTexture":{"index":1},"baseColorFactor":[1,1,1,1],"metallicFactor":0,"roughnessFactor":1},"emissiveFactor":[0,0,0],"alphaMode":"OPAQUE","doubleSided":false},{"name":"Broers_Design_Nederland_52615","pbrMetallicRoughness":{"baseColorFactor":[0.439216,0.436078,0.436078,0.8],"metallicFactor":0,"roughnessFactor":0.99983391},"emissiveFactor":[0,0,0],"alphaMode":"BLEND","doubleSided":true},{"name":"Broers_Design_Nederland_156947","pbrMetallicRoughness":{"baseColorTexture":{"index":2},"baseColorFactor":[1,1,1,1],"metallicFactor":0,"roughnessFactor":0.775},"emissiveFactor":[0,0,0],"alphaMode":"OPAQUE","doubleSided":false}],"meshes":[{"name":"Broers_Design_Nederland-Mesh","primitives":[{"attributes":{"POSITION":0,"NORMAL":1,"TEXCOORD_0":2},"indices":3,"material":0,"mode":4}]},{"name":"Broers_Design_Nederland_1-Mesh","primitives":[{"attributes":{"POSITION":4,"NORMAL":5,"TEXCOORD_0":6},"indices":7,"material":1,"mode":4}]},{"name":"Broers_Design_Nederland_2-Mesh","primitives":[{"attributes":{"POSITION":8,"NORMAL":9,"TEXCOORD_0":10},"indices":11,"material":2,"mode":4}]},{"name":"Broers_Design_Nederland_3-Mesh","primitives":[{"attributes":{"POSITION":12,"NORMAL":13,"TEXCOORD_0":14},"indices":15,"material":3,"mode":4}]},{"name":"Broers_Design_Nederland_4-Mesh","primitives":[{"attributes":{"POSITION":16,"NORMAL":17,"TEXCOORD_0":18},"indices":19,"material":3,"mode":4}]}],"nodes":[{"name":"Broers_Design_Nederland","mesh":0},{"name":"Broers_Design_Nederland_1","mesh":1},{"name":"Broers_Design_Nederland_2","mesh":2},{"name":"Broers_Design_Nederland_3","mesh":3},{"name":"Broers_Design_Nederland_4","mesh":4}],"samplers":[{"wrapS":10497,"wrapT":10497}],"scene":0,"scenes":[{"nodes":[0,1,2,3,4]}],"textures":[{"name":"Broers_Design_Nederland_144410","sampler":0,"source":0},{"name":"Broers_Design_Nederland_319685","sampler":0,"source":1},{"name":"Broers_Design_Nederland_156947","sampler":0,"source":2}]}