{"accessors":[{"name":"Broers_Design_Nederland-Mesh_0_positions","componentType":5126,"count":268,"min":[-0.4008186459541321,0.7517227530479431,-0.5185729265213013],"max":[0.003379642963409424,0.8011106252670288,-0.029388360679149628],"type":"VEC3","bufferView":0,"byteOffset":0},{"name":"Broers_Design_Nederland-Mesh_0_normals","componentType":5126,"count":268,"min":[-0.9972036480903625,-0.9983565807342529,-0.9591832160949707],"max":[0.9648048877716064,0.9999881386756897,0.9421940445899963],"type":"VEC3","bufferView":1,"byteOffset":0},{"name":"Broers_Design_Nederland-Mesh_0_texcoords","componentType":5126,"count":268,"min":[0,0.014468014240264893],"max":[0.9635027050971985,1],"type":"VEC2","bufferView":2,"byteOffset":0},{"name":"Broers_Design_Nederland-Mesh_0_indices","componentType":5123,"count":915,"min":[0],"max":[267],"type":"SCALAR","bufferView":3,"byteOffset":0},{"name":"Broers_Design_Nederland_1-Mesh_0_positions","componentType":5126,"count":394,"min":[-0.5249997973442078,0.7228327393531799,-1.2499961853027344],"max":[0.5250183939933777,0.7528946995735168,1.2499961853027344],"type":"VEC3","bufferView":0,"byteOffset":3216},{"name":"Broers_Design_Nederland_1-Mesh_0_normals","componentType":5126,"count":394,"min":[-1,-1,-1],"max":[1,1,1],"type":"VEC3","bufferView":1,"byteOffset":3216},{"name":"Broers_Design_Nederland_1-Mesh_0_texcoords","componentType":5126,"count":394,"min":[0.000831469486001879,0.003090381622314453],"max":[0.8517652750015259,0.998650074005127],"type":"VEC2","bufferView":2,"byteOffset":2144},{"name":"Broers_Design_Nederland_1-Mesh_0_indices","componentType":5123,"count":1344,"min":[0],"max":[393],"type":"SCALAR","bufferView":3,"byteOffset":1832},{"name":"Broers_Design_Nederland_2-Mesh_0_positions","componentType":5126,"count":1478,"min":[-0.8661680817604065,-0.0022946768440306187,-0.7406511902809143],"max":[-0.11575806140899658,1.4001656770706177,-0.09065541625022888],"type":"VEC3","bufferView":0,"byteOffset":7944},{"name":"Broers_Design_Nederland_2-Mesh_0_normals","componentType":5126,"count":1478,"min":[-0.9997050166130066,-0.9999834895133972,-0.9993723630905151],"max":[0.9988215565681458,0.9879150986671448,0.9996711611747742],"type":"VEC3","bufferView":1,"byteOffset":7944},{"name":"Broers_Design_Nederland_2-Mesh_0_texcoords","componentType":5126,"count":1478,"min":[-0.8661680817604065,0.2774672508239746],"max":[1.364497184753418,1.8661680221557617],"type":"VEC2","bufferView":2,"byteOffset":5296},{"name":"Broers_Design_Nederland_2-Mesh_0_indices","componentType":5123,"count":1500,"min":[0],"max":[1477],"type":"SCALAR","bufferView":3,"byteOffset":4520},{"name":"Broers_Design_Nederland_3-Mesh_0_positions","componentType":5126,"count":11723,"min":[-0.368933767080307,0.00019280148262623698,-0.7896665930747986],"max":[0.3686283528804779,0.723198413848877,0.7896667718887329],"type":"VEC3","bufferView":0,"byteOffset":25680},{"name":"Broers_Design_Nederland_3-Mesh_0_normals","componentType":5126,"count":11723,"min":[-1,-1,-1],"max":[1,1,1],"type":"VEC3","bufferView":1,"byteOffset":25680},{"name":"Broers_Design_Nederland_3-Mesh_0_texcoords","componentType":5126,"count":11723,"min":[0.008012622594833374,0.03944891691207886],"max":[0.9531927108764648,0.9752682447433472],"type":"VEC2","bufferView":2,"byteOffset":17120},{"name":"Broers_Design_Nederland_3-Mesh_0_indices","componentType":5123,"count":38754,"min":[0],"max":[11722],"type":"SCALAR","bufferView":3,"byteOffset":7520}],"asset":{"generator":"obj2gltf","version":"2.0"},"buffers":[{"name":"model","byteLength":2468996,"uri":"data:application/octet-stream;base64,"}],"bufferViews":[{"name":"bufferView_0","buffer":0,"byteLength":166356,"byteOffset":0,"byteStride":12,"target":34962},{"name":"bufferView_1","buffer":0,"byteLength":166356,"byteOffset":166356,"byteStride":12,"target":34962},{"name":"bufferView_2","buffer":0,"byteLength":110904,"byteOffset":332712,"byteStride":8,"target":34962},{"name":"bufferView_3","buffer":0,"byteLength":85028,"byteOffset":443616,"target":34963},{"buffer":0,"byteOffset":528644,"byteLength":47340},{"buffer":0,"byteOffset":575984,"byteLength":1892196},{"buffer":0,"byteOffset":2468180,"byteLength":813}],"images":[{"name":"Broers_Design_Nederland_144410","mimeType":"image/jpeg","bufferView":4},{"name":"Broers_Design_Nederland_319682","mimeType":"image/jpeg","bufferView":5},{"name":"Broers_Design_Nederland_156947","mimeType":"image/jpeg","bufferView":6}],"materials":[{"name":"Broers_Design_Nederland_144410","pbrMetallicRoughness":{"baseColorTexture":{"index":0},"baseColorFactor":[1,1,1,1],"metallicFactor":0,"roughnessFactor":1},"emissiveFactor":[0,0,0],"alphaMode":"OPAQUE","doubleSided":false},{"name":"Broers_Design_Nederland_319682","pbrMetallicRoughness":{"baseColorTexture":{"index":1},"baseColorFactor":[1,1,1,1],"metallicFactor":0,"roughnessFactor":1},"emissiveFactor":[0,0,0],"alphaMode":"OPAQUE","doubleSided":false},{"name":"Broers_Design_Nederland_52615","pbrMetallicRoughness":{"baseColorFactor":[0.439216,0.436078,0.436078,0.8],"metallicFactor":0,"roughnessFactor":0.99983391},"emissiveFactor":[0,0,0],"alphaMode":"BLEND","doubleSided":true},{"name":"Broers_Design_Nederland_156947","pbrMetallicRoughness":{"baseColorTexture":{"index":2},"baseColorFactor":[1,1,1,1],"metallicFactor":0,"roughnessFactor":0.775},"emissiveFactor":[0,0,0],"alphaMode":"OPAQUE","doubleSided":false}],"meshes":[{"name":"Broers_Design_Nederland-Mesh","primitives":[{"attributes":{"POSITION":0,"NORMAL":1,"TEXCOORD_0":2},"indices":3,"material":0,"mode":4}]},{"name":"Broers_Design_Nederland_1-Mesh","primitives":[{"attributes":{"POSITION":4,"NORMAL":5,"TEXCOORD_0":6},"indices":7,"material":1,"mode":4}]},{"name":"Broers_Design_Nederland_2-Mesh","primitives":[{"attributes":{"POSITION":8,"NORMAL":9,"TEXCOORD_0":10},"indices":11,"material":2,"mode":4}]},{"name":"Broers_Design_Nederland_3-Mesh","primitives":[{"attributes":{"POSITION":12,"NORMAL":13,"TEXCOORD_0":14},"indices":15,"material":3,"mode":4}]}],"nodes":[{"name":"Broers_Design_Nederland","mesh":0},{"name":"Broers_Design_Nederland_1","mesh":1},{"name":"Broers_Design_Nederland_2","mesh":2},{"name":"Broers_Design_Nederland_3","mesh":3}],"samplers":[{"wrapS":10497,"wrapT":10497}],"scene":0,"scenes":[{"nodes":[0,1,2,3]}],"textures":[{"name":"Broers_Design_Nederland_144410","sampler":0,"source":0},{"name":"Broers_Design_Nederland_319682","sampler":0,"source":1},{"name":"Broers_Design_Nederland_156947","sampler":0,"source":2}]}